<?xml version="1.0" encoding="UTF-8"?>
<svg id="Layer_1" xmlns="http://www.w3.org/2000/svg" version="1.1" viewBox="0 0 516.09998 516.09998">
  <path d="M421.29999,226.79999c-.29999-5.29999-.59998-10.59998-1.59998-15.79999-.80005-4.29999-1.90002-9.70001-7.10004-10.40002-5.5-.79999-9.90424,5.14758-12.39984,10.66418-2.2876,5.05688-4.45483,12.76251-5.90015,26.83582,2.8606-2.15692,7.11481-2.55829,25.29999-7.69995.90002-.30005,1.80005-2.40002,1.70001-3.60004Z"/>
  <path d="M480.55505,113.07263L285.57556,10.71381c-15.625-8.20264-34.28333-8.20264-49.90833.00006L40.68774,113.07263c-17.66644,9.27441-28.73212,27.58136-28.73212,47.53424v196.18372c0,19.95288,11.06567,38.25983,28.73212,47.53424l194.97949,102.35876c15.625,8.2027,34.28333,8.2027,49.90833,0l194.97949-102.35876c17.66644-9.27441,28.73212-27.58136,28.73212-47.53424v-196.18372c0-19.95294-11.06567-38.25989-28.73212-47.53424ZM182.90002,138.89996c12.59998-3.69995,25.20001-7.19995,39.39996-11.29999-1.69995,2.29999-2.5,4.10004-3.79999,5.10004-2.79999,2-3.90002,4-1.59998,7,4.89996,6.39996,9.89996,12.79999,15.59998,20.19995,3.60004-7.09998,7.29999-13.09998,10-19.29999,4.09998-9.59998,2-12.79999-9.60004-13.79999,1.79999-1.70001,2.70001-3.39996,4-3.79999,9.29999-2.79999,18.70001-5.40002,28.90002-8.29999-.5,1.70001-.60004,3.29999-1.40002,4.39996-6.29999,8.70001-12.89996,17.20001-19.09998,26-3.40002,4.80005-6.29999,9.90002-9,15-.70001,1.30005-.70001,3.90002.20001,5.10004,8.39996,11.29999,17.09998,22.5,25.89996,33.59998,1.60004,1.90002,4.20001,3.09998,6.20001,4.70001.90002.70001,2.20001,1.79999,2.20001,2.59998,0,.90002-1.29999,2.20001-2.29999,2.5-12.59998,3.70001-25.20001,7.30005-39.29999,11.30005,1.29999-2.20001,1.79999-3.90002,3-4.80005,4.5-3.39996,4.79999-4.29999,1.29999-8.79999-5.09998-6.70001-10.39996-13.40002-16-20.59998-4.79999,7.59998-9.70001,14.69995-11.29999,23.29999-1.29999,7.39996,2.5,10.79999,13.59998,11.20001-1.89996,1.89996-2.69995,3.59998-4,4-11.09998,3.29999-22.19995,6.5-34.19995,9.89996.5-1.70001.59998-3.39996,1.39996-4.5,6.59998-9.09998,13.5-18.09998,19.90002-27.29999,4.39996-6.29999,8.09998-13,12.29999-19.90002-9.29999-11.79999-18.60004-23.79999-28-35.59998-1.10004-1.29999-3.10004-1.79999-4.5-2.90002-.90002-.70001-2.20001-1.79999-2.20001-2.59998,0-.90002,1.40002-2.09998,2.40002-2.40002ZM88.20001,247.5c-1.20001-11.59998-1-23.29999-1.29999-34.90002-.29999-9.39996-.10004-18.69995-.60004-28-.5-8.59998-1.70001-9.5-11.39996-10.09998,1.29999-1.79999,1.89996-3.60004,3.29999-3.79999,11-3.70001,22-7.10004,33.79999-10.90002v25.90002c.10004,17,0,34,.40002,51,.09998,3.5,1.39996,8.29999,3.79999,10,3.59998,2.5,8,.09998,11.40002-2.60004,7-5.5,10.5-13,10.59998-21.70001.20001-16.69995,0-33.39996-.09998-50-.10004-1.5-.30005-3-.5-4.5-1.20001-7.39996-2.90002-8.79999-11.40002-8.09998,1.20001-1.90002,1.79999-3.90002,2.90002-4.29999,11-3.70001,22-7.10004,33.59998-10.80005,0,1.10004.20001,2.80005.20001,4.5.09998,23.30005.09998,46.60004.20001,69.90002.09998,1.5,0,3,.09998,4.5.40002,8.20001,2.5,10.29999,11.79999,10.10004-1.29999,1.89996-1.89996,3.79999-3,4.19995-5.59998,1.90002-11.5,3.20001-17.09998,5.10004-5.5,1.79999-10.70001,4.20001-16.70001,6.59998v-12.89996c-6.5,10.79999-15.09998,18.39996-27,21.89996-1.70001.5-3.5,1-5.29999,1.29999-9.79999,1.80005-16.70001-2.39996-17.70001-12.39996ZM192.40002,276.40009c1,4.90002,1.79999,10.29999,1.09998,15.20001-1.20001,8.39996-7.5,13-16.20001,13.5-8.89996.5-13.79999-2.70001-17.19995-11.40002.29999-.20001.70001-.59998,1.09998-.59998,12.90002-1.20001,13.90002-11.5,9.90002-20.10004-4.29999-9.20001-14.29999-14.39996-24.40002-12.59998-27.74622,7.32886-26.90344,26.4726-19.5,35.59998,7.40344,9.12732,14.89087,14.02979,30.59998,16.5-11.37469,4.15186-19.39996,9.39996-25.39996,13.19995-12.90002,8.20001-17.40002,20.70001-14.90002,35.40002,2.70001,15.5,12.20001,25.29999,27.5,28.79999,31.40002,7.29999,58.80005-17.60004,55-49.60004-1.5-12.89996-11.59998-19.19995-22.19995-13.89996-4.20001,2.09998-6.30005,5.39996-5.70001,10.09998.59998,4.60004,3.59998,6.70001,8.09998,7.40002,5.79999.79999,6.90002,2.59998,4.40002,8-3.5,7.39996-9.40002,12.39996-17.60004,13-7.20001.5-13.12988-6.02747-15.09998-10.40002s-3.10004-14.79999,1.89996-21.59998c1.30005-1.70001,2.80005-3.60004,4.70001-4.40002,13.20001-5.70001,26.29999-11.79999,39.90002-16.5,8-2.70001,13,.79999,15.70001,8.90002,2.89996,8.59998,4.09998,17.5.89996,26.39996-10.20001,28.10004-27.89996,48.5-58,56-11.09998,2.80005-22.5,3.20001-33.59998.20001-24-6.5-34.5-31.70001-23.79999-56.20001,5-11.5,13.5-19.70001,23.89996-26.20001,1.40002-.89996,2.90002-1.79999,4.60004-2.89996-4.30005-1.90002-8.70001-3.10004-12.10004-5.69995-11-8.70001-13.20001-23-5.5-35.5,9.09998-14.59998,23.09998-21.59998,39.59998-24,8.20001-1.20001,16.29999-.5,23.90002,3.20001,2.40002,1.20001,3.90002.89996,5.29999-1.5,4.70001-8.20001,12.40002-12.10004,21.10004-14.79999,32.20001-9.90002,64.39996-19.90002,96.59998-29.90002,13.20001-4.09998,24.90002-10.5,33.40002-21.70001,9.40002-12.5,10.20001-26.20001,4.20001-40.09998-6-13.79999-18.30005-18.60004-32.20001-20.10004-10.90002-1.09998-20.79999,1.79999-29.29999,8.90002-10.60004,8.79999-12.80005,24.20001-5.20001,35.09998,3.29999,4.90002,9.86279,5.68927,13.5,3.40002,3.63715-2.28925,4.5-6.60004.20001-8.79999-4-2-3.10004-4.10004-1-6.60004,5-6,16.5-6.29999,22-.29999,4.39996,4.89996,6,10.79999,4.09998,17.20001-1.79999,5.89996-6.66296,8.49493-12.20001,9.79999-22.27557,4.2334-33.79999-13.09998-34.59998-24.40002-2.20001-30.09998,25.39996-50.49994,49.09998-49.59998,23.20001.90002,42.40002,15.20001,47.40002,36.29999,4.20001,18.00006-4,37.70001-20.90002,49.40002-14,9.70001-30.20001,14.5-46.20001,19.5-23.89996,7.5-48,14.70001-71.89996,22.10004-3,1-5.90002,2.20001-8.80005,3.59998-15.19995,7.20001-19.5,16.20001-16.19995,32.70001ZM367.80005,306.90002c-13.70001,4.10004-27.40002,7.90002-42.29999,12.10004,1-2,1.29999-4,2.39996-4.5,4.90002-2.20001,6.10004-6.5,6.10004-11.10004.09998-20.70001.09998-41.29999-.10004-62-.09998-4,.30005-9.09998-4.39996-10.89996-4.90002-1.79999-9.10004,1.09998-12.5,4.39996-5.80005,5.70001-9.20001,12.70001-9.20001,20.90002,0,17.89996.09998,35.70001.29999,53.5.09998,7.89996,1.20001,8.89996,10.59998,8.89996-1.29999,1.90002-2,3.90002-3.09998,4.20001-13.29999,3.90002-26.60004,7.70001-41,11.79999.79999-1.79999,1-3.79999,2-4.20001,5.19995-2.39996,6.39996-6.89996,6.39996-11.59998,0-21.80005-.20001-43.60004-.70001-65.40002-.19995-7.90002-4.39996-10-11.29999-6.09998-9.69995,5.5-13.29999,14.69995-13.39996,25.19995-.20001,18,.20001,36,.5,54,.09998,6.40002,1.29999,7.5,9.09998,7.5-1.70001,2-2.5,3.90002-3.70001,4.30005-13.5,4.10004-27,7.90002-41.89996,12.10004,1-1.90002,1.39996-4.10004,2.5-4.5,7.5-2.60004,8.69995-8.60004,8.79999-15.20001.09998-9.5-.09998-19-.20001-28.5-.09998-11-.20001-22-.5-33-.20001-8.40002-1.70001-9.79999-11.39996-10,1.09998-1.80005,1.59998-3.60004,2.69995-4,11.10004-3.80005,22.30005-7.30005,33.70001-11v11.79999c.29999.09998.60004.20001.90002.29999.89996-1.29999,1.70001-2.59998,2.5-3.89996,6.59998-10.70001,16-17.20001,28.5-18.90002,10-1.39996,13.89996,1.10004,17.59998,10.79999.90002-1.59998,1.70001-3,2.5-4.39996,7.10004-13.29999,18.60004-20.10004,33.10004-22.10004,8.5-1.20001,14.69995,4,15.79999,13.40002.70001,5.59998.89996,11.29999,1,16.89996.20001,15.20001.09998,30.29999.20001,45.5,0,8.70001,2.20001,10.5,12,9.10004-1.60004,2.20001-2.29999,4.20001-3.5,4.59998ZM402.80005,298.59998c-11.79999,2.20001-22.09998-2.20001-27.70001-12.09998-16.79999-29.80005-.19995-77,31.60004-89.10004,4.89996-1.79999,10.29999-2.89996,15.5-3.19995,7.59998-.40002,14.09998,3.09998,16.70001,10.29999,2.40002,6.59998,3.20001,13.79999,4.20001,20.79999.19995.90002-2.20001,2.90002-3.70001,3.40002-13,4-26,7.89996-39.10004,11.59998-3.20001.90002-5.67755,2.73029-5.27759,6.23029.63818,7.08044.70001,14.70001,2.70001,21.59998,3.19995,11.09998,12.97754,14.06976,23.57758,9.36975,7.59998-3.40002,19.20001-18.90002,20.5-20.10004.5.60004.89996,1.20001,1.39996,1.70001h.00006c-6.80005,19.90002-18,35.29999-40.40002,39.5Z"/>
</svg>